<?xml version="1.0" encoding="utf-8"?>
<!-- Generator: Adobe Illustrator 21.1.0, SVG Export Plug-In . SVG Version: 6.00 Build 0)  -->
<svg version="1.1" id="Layer_1" xmlns="http://www.w3.org/2000/svg" xmlns:xlink="http://www.w3.org/1999/xlink" x="0px" y="0px"
	 viewBox="0 0 500 500" style="enable-background:new 0 0 500 500;" xml:space="preserve">
<style type="text/css">
	.st0{fill:#10C4C4;}
	.st1{fill:#FFFFFF;}
	.st2{fill:none;stroke:#130000;stroke-width:1.7512;stroke-miterlimit:10;}
</style>
<ellipse class="st0" cx="250" cy="250" rx="240.6" ry="240.6"/>
<path class="st1" d="M83.1,343.8V153.9h35.8c18.7,0,35.6,0,46.8,14.3c8.9,11,9.7,20.9,9.7,67c0,10.2,0,22.3-0.5,48.2
	c-0.3,18.5-0.8,32-7.5,43.3c-10.8,17.2-28.6,17.2-49,17.2H83.1z M106.7,322.8h15.4c15,0,25.8-1.3,28.5-18.2
	c1.3-8.9,1.6-35.5,1.6-45.5c0-17.5,0-24.2-0.3-42.5c-0.3-20.7-0.5-31-8.8-36.9c-6-4-11.3-4-36.4-4V322.8z"/>
<path class="st1" d="M239.3,153.9c16.9,0,29.8,0,39.8,6.2c17.2,10.5,17.2,32.5,17.2,38.5c0,25.2-9.5,42.7-30.7,42.7
	c25.8,0,33.6,21.8,33.6,44.4c0,21.5-2.2,34.7-12.4,45.5c-12.1,12.6-25.5,12.6-49.7,12.6h-32.5V153.9H239.3z M228.2,231.9h16.2
	c13.7,0,28.8,0,28.8-28.8c0-28-13.7-28-31.5-28h-13.5V231.9z M228.2,252.4v71h13.5c18.6,0,34.2,0,34.2-31.2
	c0-38.2-11-39.8-34.7-39.8H228.2z"/>
<path class="st1" d="M324.6,343.8V153.9h35.8c18.6,0,35.5,0,46.8,14.3c8.8,11,9.7,20.9,9.7,67c0,10.2,0,22.3-0.6,48.2
	c-0.3,18.5-0.9,32-7.6,43.3c-10.7,17.2-28.5,17.2-48.9,17.2H324.6z M348.3,322.8h15.4c15.1,0,25.8-1.3,28.6-18.2
	c1.3-8.9,1.6-35.5,1.6-45.5c0-17.5,0-24.2-0.4-42.5c-0.3-20.7-0.5-31-8.9-36.9c-5.9-4-11.3-4-36.3-4V322.8z"/>
<path class="st2" d="M201.7,580.5"/>
</svg>
